# xmcd CD database file
#
# Track frame offsets:
#	150
#	15823
#	36246
#	56424
#	76991
#	99205
#	110927
#	137126
#	157599
#	177030
#
# Disc length: 2650 seconds
#
# Revision: 0
# Processed by: cddbd v1.5PL3 Copyright (c) Steve Scherf et al.
# Submitted via: CDex 1.50beta9
#
DISCID=6a0a580a
DTITLE=Kaoru - Mirror of the Mind
DYEAR=2004
DGENRE=Rock
TTITLE0=Mirror of the Mind
TTITLE1=FooL
TTITLE2=MAZE
TTITLE3=Catastrophe
TTITLE4=Wish
TTITLE5=Sky
TTITLE6=Gear of Destiny
TTITLE7=Egoistic World
TTITLE8=Know
TTITLE9=An escape from reality
EXTD=YEAR: 2004
EXTT0=
EXTT1=
EXTT2=
EXTT3=
EXTT4=
EXTT5=
EXTT6=
EXTT7=
EXTT8=
EXTT9=
PLAYORDER=
